Coordinates
version=1
nRows=11
nColumns=36
inDegrees=yes

Units are S.I. units (second, meters, Newtons, ...)
If the header above contains a line with 'inDegrees', this indicates whether rotational values are in degrees (yes) or radians (no).

endheader
time	pelvis_tilt	pelvis_list	pelvis_rotation	pelvis_tx	pelvis_ty	pelvis_tz	hip_flexion_r	hip_adduction_r	hip_rotation_r	knee_angle_r	knee_angle_r_beta	ankle_angle_r	subtalar_angle_r	mtp_angle_r	hip_flexion_l	hip_adduction_l	hip_rotation_l	knee_angle_l	knee_angle_l_beta	ankle_angle_l	subtalar_angle_l	mtp_angle_l	lumbar_extension	lumbar_bending	lumbar_rotation	arm_flex_r	arm_add_r	arm_rot_r	elbow_flex_r	pro_sup_r	arm_flex_l	arm_add_l	arm_rot_l	elbow_flex_l	pro_sup_l
      4.01666670	    -12.68984325	      2.52455323	    -22.49732973	      0.88298650	      0.79929501	     -0.32864284	     43.93647328	     10.86979038	     -1.91906621	     63.18118584	      1.10271972	     31.14626531	     -4.82322500	     -7.49999987	     73.65634874	    -10.15195439	      7.84560477	     24.75152446	      0.43199560	     -1.19276721	      9.61414767	     -7.49999987	    -16.08421430	     12.30969124	      3.10633530	     68.05666056	      8.40815015	     78.31122845	    137.06545144	    101.59282024	     79.25761885	     15.44471679	     61.97748249	    129.74186097	    105.04734348
      4.03333330	    -11.88524871	      2.57507210	    -22.00241874	      0.88645942	      0.80777301	     -0.32431534	     41.71496952	     10.48599614	     -1.29152468	     60.91236870	      1.06312139	     30.30204626	     -5.20698332	     -7.49999987	     72.28510246	     -9.47840194	      7.66090133	     24.15989870	      0.42166978	     -1.15492100	      9.27499465	     -7.49999987	    -15.51111784	     11.87192763	      2.64160849	     66.94489637	      8.00355381	     78.43063779	    136.88647790	    101.75391387	     79.06410565	     15.82354926	     61.55935795	    129.08728408	    105.11513126
      4.05000000	    -10.64567569	      2.47899595	    -21.44559041	      0.88690844	      0.82309762	     -0.32505824	     38.90232134	     10.19826622	     -0.36811861	     58.19847162	      1.01575495	     28.47129096	     -6.99746940	     -7.49999987	     70.18765608	     -8.76914261	      7.30807940	     23.17239868	      0.40443465	     -1.05334886	      8.83796600	     -7.49999987	    -16.00645393	     11.44814739	      2.98376781	     66.67483639	      7.12016707	     78.68280939	    137.18097682	     99.64532483	     77.55328604	     16.38018744	     62.19481913	    128.21579799	    102.96187471
      4.06666670	     -9.64360956	      2.62718123	    -21.04854175	      0.89076880	      0.83250318	     -0.32159842	     35.93036026	      9.81406546	      0.70004739	     55.01802818	      0.96024574	     27.38647953	     -7.43397005	     -7.49999987	     68.46128732	     -8.21355011	      7.03967950	     22.35441761	      0.39015819	     -0.73723949	      8.05689081	     -7.49999987	    -15.58477102	     10.56727099	      2.83141165	     65.64830916	      7.14806928	     77.17429384	    135.61823540	     99.87466270	     76.22975052	     16.89724617	     62.24836879	    127.78360301	    103.27268391
      4.08333330	     -8.42799234	      2.69533163	    -20.48503515	      0.89046658	      0.84128274	     -0.32174823	     32.57116486	      9.55108450	      2.08718169	     51.37374549	      0.89664101	     25.49174983	     -9.10257945	     -7.49999987	     66.79030027	     -7.57077921	      6.78169512	     21.61657873	      0.37728047	     -0.54309310	      7.08869190	     -7.49999987	    -15.58468258	      9.81277042	      2.28021195	     64.81943306	      6.63936462	     76.02603420	    134.91692208	    100.31888230	     76.58548322	     16.22052178	     61.57170697	    129.15305961	    103.62183153
      4.10000000	     -7.58651525	      2.95907616	    -19.99246088	      0.89517179	      0.84910101	     -0.32451723	     29.77445643	      9.02160586	      3.20680673	     48.03727924	      0.83840869	     23.89970509	    -10.36555836	     -7.49999987	     65.64697612	     -6.77732358	      6.69462756	     21.21350736	      0.37024555	     -0.14729816	      6.11831605	     -7.49999987	    -15.33748962	      8.99823458	      1.18760616	     63.69773279	      6.31634888	     75.25270688	    133.79969824	    100.92687142	     77.35019524	     16.64645680	     59.40632940	    127.11296338	    103.65637507
      4.11666670	     -6.70245141	      3.31601498	    -19.46336756	      0.90036250	      0.86249289	     -0.31869438	     26.94268881	      8.46872261	      4.37998532	     44.84343306	      0.78266555	     22.19959182	    -11.82262140	     -7.49999987	     64.35519461	     -5.90709561	      6.43582951	     21.14533619	      0.36905574	      0.30407013	      5.21910704	     -7.49999987	    -14.95588271	      7.93216667	      0.26308325	     61.45772170	      6.95679646	     76.17217314	    135.17392008	    100.09628387	     76.47627184	     16.69232041	     60.52019332	    127.12566374	    102.29808682
      4.13333330	     -5.88181985	      3.44696793	    -19.21110533	      0.89275852	      0.86983604	     -0.31608717	     24.59774825	      8.21931795	      5.28438563	     42.06164979	      0.73411428	     20.69047567	    -12.28406825	     -7.49999987	     63.02095617	     -5.64165191	      6.03200589	     20.63898260	      0.36021820	      0.23241216	      4.95864048	     -7.49999987	    -14.81180616	      6.81876353	      0.38191015	     60.46534906	      7.43196387	     75.32998855	    135.06720706	    100.33065675	     76.23203625	     17.50345038	     62.26863759	    128.61324803	    102.41218537
      4.15000000	     -4.91367168	      3.66078696	    -19.08326349	      0.89973036	      0.87756244	     -0.31949609	     22.12744253	      7.75438915	      6.27757842	     39.29166802	      0.68576898	     18.90137253	    -13.45148279	     -7.49999987	     61.63915644	     -5.31208957	      5.24403598	     20.36321063	      0.35540507	      0.49733430	      4.80599476	     -7.49999987	    -15.03407640	      5.82468581	     -0.10723715	     60.46318578	      7.19229401	     73.90129734	    134.66032774	    100.98323947	     76.86302720	     16.91347488	     61.58637347	    128.53244645	    102.20768517
      4.16666670	     -4.10781893	      4.12131105	    -18.89872287	      0.90492908	      0.88562871	     -0.32245932	     19.70340594	      6.77084850	      6.90909427	     36.28713796	      0.63333003	     17.37224793	    -14.03577930	     -7.49999987	     60.38138231	     -4.56029991	      4.53115150	     19.95151310	      0.34821959	      0.90133832	      4.32082717	     -7.49999987	    -14.70376885	      5.07502894	     -0.61090589	     59.97404042	      6.52146920	     73.97102028	    136.15663873	    101.41112335	     76.84723453	     17.19940749	     60.43698143	    129.60526259	    101.78503912
      4.18333330	     -3.01591901	      4.52182905	    -18.81041038	      0.89948978	      0.90550495	     -0.31842641	     16.88545337	      5.94317010	      7.87316973	     32.80773472	      0.57260299	     15.21733053	    -14.83011079	     -7.49999987	     58.42954389	     -3.99605976	      3.48314774	     19.31611199	      0.33712975	      1.26533026	      4.08939154	     -7.49999987	    -15.31741833	      4.06501186	     -0.44475113	     58.69712744	      5.39070479	     74.77782620	    135.15582241	    101.85491821	     76.33656671	     17.76701123	     61.59000265	    129.99175137	    101.21587905
